<svg width="1440" height="25" viewBox="0 0 1440 25" fill="none" xmlns="http://www.w3.org/2000/svg">
<g clip-path="url(#clip0)">
<rect y="0.233154" width="1440" height="24.4594" fill="#00672F"/>
<path d="M1437.12 17.4738C1435 17.2412 1433.18 17.6259 1431.32 18.1078C1428.98 18.7154 1426.79 19.5958 1424.01 19.1914C1422.15 18.9234 1422.22 18.0362 1420.06 18.4769C1418.89 18.7154 1418.14 19.8794 1416.87 20.2121C1413.36 21.1396 1415.3 19.9707 1412.89 19.7057C1410.61 19.4554 1409.1 20.6744 1406.7 20.8481C1403.45 21.0856 1404.04 20.0168 1402.03 19.2915C1400.04 18.574 1398.31 19.1021 1396.33 19.4711C1394.12 19.8872 1393.37 19.8637 1391.16 19.7371C1386.24 19.4554 1381.34 19.2748 1376.64 18.311C1374.36 17.836 1372.55 17.1263 1370.27 16.7701C1367.84 16.3844 1366.44 16.1498 1364.29 15.2606C1362.11 14.3556 1361.88 14.1996 1358.88 14.2349C1356.18 14.2673 1353.97 14.5647 1351.97 13.4556C1348.88 11.7518 1350.34 11.7233 1345.85 12.4123C1344.37 12.6371 1340.23 13.0473 1338.9 12.4712C1336.16 11.2915 1338.25 10.414 1334.3 10.1147C1332.08 9.94977 1329.03 10.5671 1326.94 10.1951C1325.02 9.85064 1325.05 8.33229 1322.63 8.36861C1320.88 8.39805 1319.68 10.3522 1318 10.786C1315.31 11.4789 1313.29 10.8135 1311.08 10.1343C1307.66 9.08018 1307.45 9.36775 1303.84 9.94977C1300.53 10.4808 1299.83 10.1215 1298.37 8.49326C1296.85 6.81198 1297.88 6.70598 1294.02 7.03576C1292.84 7.13783 1292.75 7.54613 1291.16 7.50981C1290.8 7.10152 1290.23 6.86596 1289.42 6.80904C1281.81 5.76671 1271.67 7.40774 1264.61 9.00264C1260.07 10.0312 1255.7 10.9617 1250.91 11.6036C1247.42 12.0737 1243.01 11.5957 1239.74 12.2602C1237.09 12.798 1236.12 13.7314 1232.82 13.4262C1229.3 13.1023 1231.03 13.4213 1229.96 11.7704C1229.39 10.9008 1230.16 10.0361 1228.21 9.46001C1226.23 8.87407 1224.44 9.89088 1222.72 10.3551C1215.79 12.219 1219.76 8.08496 1215.58 7.57165C1213.54 7.32137 1207.48 10.3276 1207.97 6.99159C1206.11 6.69126 1204.59 6.85419 1202.75 7.0338C1202.41 7.447 1201.84 7.69041 1201.04 7.76107C1200.02 7.62857 1199.11 7.37241 1198.3 6.98767C1194.96 6.52932 1191.15 8.40394 1188.13 7.52944C1187.5 7.34689 1186.66 6.45865 1186.13 6.15243C1183.05 6.89344 1181.37 7.56478 1177.79 7.65115C1174.9 7.71985 1169.47 9.73286 1167.26 7.81309C1165.19 8.28027 1161.02 9.3334 1158.82 8.70231C1155.9 7.86511 1158.03 5.15623 1156.06 3.62217C1153.37 1.5277 1150.27 2.61125 1146.9 3.38662C1144.8 3.86951 1142.66 3.92741 1140.48 3.59371C1138.44 3.2816 1136.43 2.58573 1134.31 2.48169C1132.79 2.40514 1131.56 2.81245 1130.6 1.95071C1130.04 1.46292 1130.1 1.12333 1128.95 1.21166C1128.29 1.2627 1127.91 1.54144 1127.19 1.33042C1126.74 1.19203 1126.7 0.924087 1126.15 0.823976C1125.64 0.731717 1124.7 0.828884 1124.2 0.89955C1123.06 1.06051 1122.04 1.56303 1120.81 1.32748C1119.41 1.06149 1119.68 0.0319223 1117.92 0.270422C1116.74 0.432366 1115.57 1.24699 1114.16 0.781772C1113.7 0.633569 1113.67 0.379366 1113.11 0.276311C1112.67 0.197792 1111.63 0.250792 1111.19 0.331273C1109.9 0.559958 1108.81 1.5542 1107.27 1.40501C1106.14 1.29214 1105.32 0.474569 1104.28 0.752328C1103.24 1.02616 1102.94 1.72497 1102.37 2.20884C1101.94 2.57788 1101.36 2.87036 1100.51 2.76829C1099.85 2.69075 1099.89 2.30012 1099.08 2.51703C1098.16 2.75945 1098.14 3.86852 1096.77 3.52108C1096.31 3.40232 1096.33 3.04997 1095.73 2.99795C1095.09 2.93906 1094.45 3.32184 1094.13 3.56427C1093.64 3.92643 1093.25 4.55556 1092.35 4.68315C1091.56 4.79602 1091.07 4.31117 1090.37 4.35632C1089.72 4.40049 1089.27 5.15819 1088.94 5.42319C1088.11 6.11121 1086.06 6.32026 1085.55 7.11231C1085.3 7.49902 1085.52 8.22139 1084.61 8.45596C1083.95 8.62968 1083.3 8.22139 1082.56 8.20568C1081.41 8.18114 1081.12 8.40198 1080.25 8.76414C1079.68 9.00559 1079.17 9.40898 1078.43 9.26372C1078.05 9.18618 1077.56 8.719 1077.23 8.56098C1076.4 8.14679 1075.17 7.95737 1074.05 7.90535C1073.66 7.05931 1074.6 5.75885 1073.88 4.99134C1073.63 4.73026 1072.94 4.57912 1072.64 4.33571C1072.1 3.91564 1072.55 3.42784 1071.43 3.76351C1070.92 3.91465 1070.42 4.41128 1070.11 4.66352C1069.55 5.11893 1069.23 5.10421 1068.53 5.40356C1067.72 5.74708 1067.27 6.37228 1066.73 6.84241C1066.15 7.35278 1065.45 7.712 1064.76 8.15759C1063.98 8.6552 1063.36 9.13711 1062.37 9.51792C1061.38 9.90364 1060.27 10.1775 1059.33 10.6152C1058.14 11.1737 1056.8 11.3739 1055.31 11.2198C1054.69 10.8017 1054.51 10.5661 1053.59 10.5239C1053.23 10.5082 1052.7 10.5396 1052.33 10.572C1051.88 10.6152 1051.72 10.6123 1051.31 10.7428C1050.02 11.1452 1049.21 12.0207 1048.3 12.638C1048.97 11.9176 1049.08 10.0617 1046.9 10.3944C1046.52 10.4513 1046.38 10.7075 1045.97 10.7075C1045.49 10.7075 1045.48 10.417 1045.01 10.3836C1044.7 10.3492 1044.41 10.3748 1044.14 10.469C1043.19 10.5818 1042.47 11.3425 1041.61 11.4662C1040.77 11.5849 1040.55 11.2169 1039.69 11.2159C1038.92 11.211 1038.25 11.473 1037.62 11.6958C1036.78 11.9952 1037.05 12.1826 1036.29 11.7783C1035.75 11.4848 1035.99 11.154 1034.98 11.2738C1034.3 11.3552 1033.88 12.1139 1033.04 12.0177C1032.31 10.9195 1030.83 11.8794 1029.55 11.794C1028.35 11.7105 1027.48 11.2993 1026.16 11.5525C1025.58 11.6644 1025.3 11.9716 1024.74 12.06C1024.29 12.1277 1023.74 11.9863 1023.27 12.0335C1021.83 12.1718 1020.49 12.85 1018.89 12.6037C1018.27 12.5105 1018.24 12.2778 1017.49 12.2985C1017.1 12.3063 1016.34 12.4997 1016 12.5939C1015.11 12.8481 1014.2 13.3457 1013.14 13.433C1012.11 13.5174 1011.46 12.8873 1010.66 12.8962C1010.15 12.905 1010.28 13.0934 1009.77 13.1523C1008.56 13.3005 1007.24 13.1641 1007.23 12.3465C1006.64 12.4447 1006.14 12.9384 1005.39 12.9001C1004.39 12.8471 1004.6 12.2405 1003.48 12.2926C1002.51 12.3377 1002.13 12.852 1001.06 12.8707C1000.3 12.8844 999.821 12.8451 999.114 13.0591C998.424 13.2652 998.208 13.7118 997.581 13.9022C996.812 14.1377 996.613 13.7599 996.122 13.7402C994.698 13.6814 994.583 14.441 993.464 14.8513C992.207 15.3136 992.897 14.6834 991.884 14.5382C991.391 14.4685 991.096 14.8101 990.797 14.9848C989.891 15.5246 989.054 16.2695 988.031 16.7141C986.264 17.4816 983.471 16.0487 983.09 15.0554C982.919 14.6039 983.05 14.1574 982.828 13.699C982.479 12.9708 982.146 12.2945 982.046 11.5368L977.235 11.5113C976.113 11.9117 974.782 12.4575 974.163 12.6587C973.248 12.956 970.777 14.0023 969.673 14.0239C966.894 14.0779 965.63 12.695 962.647 12.8491C957.131 13.1357 955.086 16.2479 949.348 16.1076C946.189 16.032 947.606 14.7855 943.645 15.9927C942.748 16.2656 942.087 16.5954 941.5 16.9487C939.988 16.7455 938.557 16.56 937.431 16.5021C933.754 16.3166 930.76 16.7711 928.446 17.6181C928.096 17.0714 927.859 16.6533 925.91 16.2715C924.049 15.9054 921.184 16.4069 919.395 16.6287C917.206 16.8996 917.449 17.8507 914.209 17.677C907.922 17.3374 903.343 14.8228 896.672 16.1478C894.212 16.6405 892.088 17.6878 889.609 18.1314C885.915 18.788 886.253 17.6141 883.46 16.8427C880.467 16.0143 879.671 17.7054 877.518 18.1952C874.904 18.7929 870.836 18.4366 867.669 18.3493C865.954 18.1598 864.223 18.0489 862.488 18.0028C862.211 17.9292 861.919 17.8477 861.583 17.7388C860.431 17.3747 860.66 16.8162 859.121 16.6346C856.868 16.3736 856.615 17.304 854.812 17.5572C853.041 17.8055 850.928 17.3658 849.266 17.3109C848.969 16.8407 848.393 16.6749 847.533 16.8152C846.566 17.04 845.693 17.3482 844.913 17.7398C843.767 18.0597 842.342 18.154 841.009 18.3159C839.487 17.7712 837.838 17.3815 836.064 17.0508C831.439 16.1871 826.313 16.7573 821.974 17.9724C821.206 18.0313 820.37 18.1481 819.414 18.3444C816.4 18.9627 814.355 19.3052 811.635 18.0823C809.943 17.3236 809.066 16.1262 806.91 15.6865C802.803 14.8493 796.946 17.677 793.036 18.2541C788.956 18.8567 783.159 18.3277 779.552 17.1057C777.226 16.3166 776.606 15.3155 776.436 13.8531C776.405 13.5803 776.41 10.1647 776.212 10.2148C773.292 10.9519 770.809 11.5722 768.135 9.94879C766.244 8.7985 768.652 8.4059 764.945 8.65814C763.072 8.78574 761.679 9.79764 759.702 9.22151C758.199 8.78181 757.857 7.60796 756.54 7.00926C754.395 6.03661 752.353 6.65102 750.165 7.23991C746.941 8.10557 744.284 8.52663 740.729 8.04472C739.115 7.82389 738.119 7.50392 736.763 8.21746C736.262 8.48344 734.501 11.4289 734.762 11.4534C733.323 11.3189 733.149 10.0617 731.322 10.4228C730.817 11.5849 730.592 13.8943 728.185 14.3831C727.721 14.4773 725.879 14.2477 725.321 14.2339C722.515 14.1613 722.769 14.7276 720.753 15.4726C717.027 16.8437 716.272 12.2621 714.407 11.5044C712.84 10.8675 711.146 11.3876 709.574 11.7164C707.006 12.2504 705.335 11.9216 702.699 11.7812C701.297 11.7027 699.533 11.9971 698.207 11.8038C697.31 11.6713 696.488 10.9106 695.602 10.9106C693.798 10.9234 691.993 10.943 690.19 10.9725C687.359 10.9116 686.463 10.308 683.822 10.1127C681.901 9.97333 680.13 10.3031 678.242 9.99099C678.731 6.67752 672.743 9.66122 670.676 9.99099C668.307 10.3689 666.737 10.0538 664.628 10.7094C661.966 11.5398 658.295 14.387 654.674 13.4851C652.32 12.9011 654.035 10.9695 650.497 10.8527C647.419 10.7516 645.157 12.7764 641.744 12.6282C639.43 12.5301 638.333 11.5771 636.015 11.6939C633.089 11.8342 631.993 13.9689 628.669 13.4684C626.899 13.2004 626.391 12.1797 624.785 11.896C622.36 13.6951 615.53 15.4274 615.523 11.8313C610.215 12.3416 609.508 14.6795 605.195 11.8931C603.566 12.2847 601.63 13.1994 599.844 13.4517C594.943 14.1377 596.368 12.2494 593.681 11.0726C590.012 9.46688 585.446 12.218 583.379 13.6745C578.56 17.0763 576.239 13.4193 571.016 13.2377C570.901 11.8745 570.848 10.682 567.844 10.891C565.947 11.0245 566.108 12.1934 563.902 11.6487C562.493 11.3013 562.763 10.3424 560.689 10.0646C559.688 10.1186 558.685 10.1529 557.682 10.1735C555.609 9.84377 556.057 9.12336 554.887 8.47068C553.167 7.51472 554.422 8.2047 551.951 7.67372C551.038 7.80033 550.172 7.74537 549.352 7.50294C547.402 6.78843 548.467 5.51839 545.942 4.98741C544.084 4.59776 540.82 5.08163 538.899 5.31523C535.391 5.74708 531.992 6.69813 529.238 7.99172C527.95 8.59631 518.815 13.7461 519.692 10.2864C518.125 10.3679 516.782 12.5095 516.898 12.5095C515.213 12.5046 514.564 11.9068 513.894 11.0471C509.683 11.5368 512.494 15.2988 507.346 14.387C506.236 16.1979 507.41 18.9391 503.102 19.5231C500.035 19.9393 495.924 18.5819 493.07 18.1108C490.819 17.7388 488.636 17.5916 486.336 17.3904C483.859 17.1793 481.722 15.5727 479.125 16.2813C477.406 16.7495 476.852 17.9135 474.799 18.1294C472.061 18.4121 468.845 17.145 466.963 16.1714C463.027 14.1387 460.662 12.0423 454.813 12.0374C450.694 12.0335 446.764 12.9796 442.651 12.9698C440.665 12.9649 438.764 12.7244 437.088 12.1012C435.583 11.5457 433.562 9.27353 431.926 9.37757C431.386 10.6044 430.895 12.0678 429.293 13.0365C427.483 14.1299 427.253 13.4821 425.486 12.9551C423.363 12.324 422.557 13.1906 420.481 13.1661C418.193 13.1396 418.567 11.7037 416.803 11.5761C414.768 11.4279 414.469 13.0463 412.61 12.0963C411.951 11.7616 410.974 10.3659 410.677 9.87125C410.23 9.13318 410.651 7.64428 408.552 7.68452C407.411 7.70218 406.77 9.06938 405.617 9.24114C402.376 9.71814 403.085 6.7472 402.788 5.60771C402.663 5.13071 402.188 3.59567 400.781 3.88619C399.716 4.10212 399.953 4.90399 399.605 5.3643C398.165 7.26641 395.603 8.86033 394.522 10.8537C394.222 11.4063 394.348 12.5998 393.592 13.0257C392.686 13.5341 391.157 13.4114 390.753 12.6861C389.297 13.4684 390.308 15.1222 387.889 15.5678C387.404 14.9602 386.623 14.4744 385.639 14.2909C385.318 15.819 384.638 16.7534 383.552 18.1304C382.884 18.9764 382.926 20.4634 381.473 20.7146C380.921 20.6793 380.375 20.6263 379.833 20.5645C378.301 20.0629 377.253 18.3159 375.951 17.6868C370.92 15.2556 369.875 17.8173 366.089 19.1256C364.124 19.1109 362.156 19.1737 360.202 19.2974C358.935 18.8773 357.794 18.205 356.558 17.5445C354.895 16.6572 354.178 16.1763 352.034 16.2371C350.02 16.2921 348.362 17.2981 346.177 16.7495C344.181 16.246 344.213 15.3155 342.979 14.3095C342.029 14.5882 339.634 15.6384 338.641 15.7042C336.854 15.8249 336.892 15.5491 335.958 14.3841C335.273 13.5312 335.466 13.5655 334.483 13.0876C333.674 12.695 332.87 12.2965 332.057 11.8705C330.645 11.1285 329.038 10.8243 327.58 10.3924C325.56 9.7947 323.872 9.50712 321.859 8.99577C319.887 8.49718 318.031 7.2085 316.075 6.58035C314.128 5.95515 312.184 6.05428 310.226 5.66463C308.146 5.24848 306.276 3.77725 304.259 3.02642C302.381 2.32957 300.827 0.491255 298.82 0.523643C298.109 0.53444 297.295 0.376422 296.593 0.498125C295.829 0.631606 295.526 1.09388 294.97 1.27448C294.268 1.5012 293.601 1.37459 292.9 1.67492C292.241 1.96053 291.82 2.96458 291.28 3.22467C289.907 3.88717 288.36 2.93023 286.981 3.36797C286.312 3.57899 286.249 4.22088 285.581 4.43288C284.914 4.64586 284.018 4.31608 283.33 4.36123C281.513 4.48195 280.056 5.36724 278.128 5.34565C275.073 5.31032 272.865 5.92374 270.05 7.28309C268.387 8.08692 267.298 9.29512 265.787 10.467C264.672 11.3327 263.376 11.7842 262.099 12.3446C260.927 12.8579 259.567 13.382 258.245 13.8227C257.466 14.0838 256.73 13.7609 255.994 13.9846C255.331 14.1868 255.267 14.8464 254.611 15.0574C253.74 15.3391 252.705 14.9543 251.77 15.2223C248.982 16.0222 247.18 18.0656 244.273 17.2157C243.307 16.934 242.283 16.402 241.287 16.3726C239.943 16.3314 238.948 17.3334 237.668 17.5503C236.458 17.7555 234.662 17.5651 233.49 17.3737C233.975 14.0249 229.069 17.1607 227.414 17.3913C226.62 17.5032 225.774 17.5719 224.989 17.3393C224.469 17.1872 223.722 16.3794 223.273 16.3431C222.296 16.2626 220.388 17.3982 219.352 17.8752C216.835 19.0343 215.998 22.9347 213.278 23.7435C210.44 24.5876 206.58 23.6944 203.649 23.6944C200.452 23.6944 197.255 23.6846 194.057 23.6944C193.173 23.6974 191.917 24.0124 191.068 23.7435C190.399 23.5334 190.339 22.8837 189.668 22.6796C188.956 22.4597 188.139 22.9397 187.417 22.7777C186.596 22.5932 186.025 21.8963 185.204 21.7148C184.198 21.491 183.275 21.8993 182.253 21.5489C181.375 21.2486 180.993 20.8432 180.04 20.7755C178.598 20.6734 177.05 20.6783 175.651 21.013C175.005 21.4939 174.31 21.7629 173.566 21.8178C173 21.7913 172.433 21.756 171.869 21.7108C171.215 21.9209 171.146 22.5667 170.486 22.7777C169.21 23.188 167.35 22.7286 166.021 22.7286C163.047 22.7286 159.734 23.2164 157.146 21.7913C155.852 21.0797 154.769 20.0011 153.496 19.108C152.383 18.3257 151.392 16.9458 150.192 16.4099C148.963 15.8622 147.91 16.03 146.695 15.1202C144.853 13.7422 143.043 12.3269 140.862 12.4172C138.008 12.5369 135.25 13.8855 132.379 13.9974C129.611 14.1034 127.41 14.9995 124.747 15.6698C123.246 16.0497 121.705 15.5678 120.235 15.924C118.756 16.2803 117.115 17.1332 115.648 17.6897C114.901 17.9743 113.599 18.5691 112.882 18.6761C111.614 18.8665 112.206 18.5014 111.259 18.1353C109.82 17.5788 108.103 16.5168 106.832 16.1871C103.24 15.2537 99.699 14.972 95.9295 15.0064C93.4305 15.0289 91.233 13.5979 88.9492 12.431C86.826 11.3445 85.185 11.525 82.9192 11.6369C77.4435 11.9098 72.0585 9.55325 66.6075 11.208C60.0142 13.2093 54.6398 11.2522 47.9723 12.059C42.3338 12.7431 38.7937 16.3539 33.3247 12.9943C29.0625 10.3738 28.8952 6.93663 23.0137 8.45105C21.0225 8.9624 21.0278 8.53055 19.3508 8.06435C17.7563 7.62759 17.0685 7.83861 15.4537 8.09576C12.9217 8.50405 11.421 7.05048 9.00075 7.0917C6.11925 7.14176 6.48975 8.64735 5.0925 9.65631C3.8745 7.70022 2.24025 6.54109 0 5.94435L0 24.6926H1440.02V18.0646C1439.16 17.8742 1438.33 17.6033 1437.12 17.4738Z" fill="white"/>
</g>
<defs>
<clipPath id="clip0">
<rect y="0.233154" width="1440" height="24.4594" fill="white"/>
</clipPath>
</defs>
</svg>
