<svg width="1440" height="26" viewBox="0 0 1440 26" fill="none" xmlns="http://www.w3.org/2000/svg">
<g clip-path="url(#clip0)">
<rect x="1440" y="25.1572" width="1440" height="24.4594" transform="rotate(-180 1440 25.1572)" fill="#00672F"/>
<path d="M2.89564 7.94006C5.01587 8.17342 6.83385 7.78744 8.69233 7.30397C11.036 6.69446 13.2313 5.81122 16.0092 6.2169C17.8685 6.48571 17.7927 7.37585 19.9594 6.93374C21.1264 6.69446 21.8719 5.52665 23.1447 5.19285C26.6524 4.26235 24.7159 5.43508 27.1286 5.70094C29.4116 5.95203 30.9138 4.72908 33.3145 4.55479C36.5657 4.31651 35.9778 5.3888 37.9878 6.11647C39.9797 6.83625 41.7077 6.30651 43.6839 5.93627C45.9009 5.51878 46.6419 5.54241 48.8596 5.66943C53.7773 5.95203 58.6792 6.1332 63.3749 7.10014C65.6572 7.57672 67.4639 8.28863 69.7416 8.64606C72.1776 9.03303 73.5763 9.26837 75.7287 10.1605C77.9075 11.0683 78.1325 11.2249 81.1332 11.1894C83.8384 11.1569 86.0419 10.8586 88.0497 11.9713C91.1321 13.6806 89.6801 13.7092 94.1666 13.018C95.6433 12.7925 99.784 12.3809 101.118 12.9589C103.853 14.1424 101.768 15.0227 105.72 15.323C107.936 15.4885 110.987 14.8691 113.072 15.2423C114.997 15.5879 114.962 17.1112 117.386 17.0748C119.139 17.0452 120.337 15.0848 122.017 14.6495C124.702 13.9544 126.725 14.622 128.935 15.3034C132.358 16.3609 132.566 16.0724 136.171 15.4885C139.483 14.9558 140.184 15.3162 141.648 16.9497C143.164 18.6364 142.133 18.7428 145.995 18.4119C147.18 18.3095 147.264 17.8999 148.859 17.9363C149.214 18.346 149.788 18.5823 150.591 18.6394C158.202 19.6851 168.345 18.0387 175.4 16.4387C179.94 15.4067 184.317 14.4733 189.106 13.8293C192.59 13.3577 197.002 13.8372 200.274 13.1706C202.929 12.631 203.895 11.6946 207.192 12.0008C210.717 12.3257 208.981 12.0057 210.055 13.6619C210.621 14.5343 209.85 15.4018 211.806 15.9798C213.784 16.5677 215.578 15.5475 217.299 15.0818C224.224 13.2119 220.251 17.3593 224.439 17.8743C226.478 18.1254 232.532 15.1094 232.04 18.4562C233.907 18.7575 235.427 18.5941 237.264 18.4139C237.601 17.9994 238.172 17.7552 238.975 17.6843C239.996 17.8172 240.908 18.0742 241.711 18.4602C245.056 18.92 248.864 17.0393 251.884 17.9166C252.511 18.0998 253.357 18.9909 253.885 19.2981C256.961 18.5547 258.645 17.8812 262.219 17.7945C265.111 17.7256 270.547 15.7061 272.752 17.6321C274.823 17.1634 278.997 16.1068 281.193 16.74C284.111 17.5799 281.986 20.2975 283.956 21.8366C286.647 23.9378 289.744 22.8508 293.11 22.0729C295.217 21.5884 297.35 21.5303 299.535 21.8651C301.578 22.1783 303.586 22.8764 305.705 22.9807C307.22 23.0576 308.449 22.6489 309.418 23.5135C309.975 24.0028 309.913 24.3435 311.059 24.2549C311.722 24.2037 312.103 23.9241 312.82 24.1358C313.274 24.2746 313.312 24.5434 313.861 24.6438C314.373 24.7364 315.309 24.6389 315.813 24.568C316.958 24.4065 317.977 23.9024 319.208 24.1387C320.599 24.4056 320.332 25.4385 322.096 25.1992C323.276 25.0367 324.444 24.2195 325.858 24.6862C326.314 24.8349 326.344 25.0899 326.899 25.1933C327.345 25.2721 328.384 25.2189 328.827 25.1381C330.116 24.9087 331.205 23.9113 332.744 24.0609C333.873 24.1742 334.692 24.9944 335.733 24.7157C336.775 24.441 337.069 23.7399 337.642 23.2545C338.078 22.8843 338.652 22.5908 339.502 22.6932C340.16 22.771 340.12 23.1629 340.938 22.9453C341.852 22.7021 341.876 21.5894 343.244 21.938C343.704 22.0571 343.687 22.4106 344.28 22.4628C344.922 22.5219 345.561 22.1379 345.886 21.8947C346.376 21.5313 346.763 20.9002 347.662 20.7722C348.458 20.6589 348.944 21.1453 349.643 21.1C350.291 21.0557 350.745 20.2956 351.068 20.0297C351.908 19.3395 353.948 19.1297 354.458 18.3351C354.709 17.9472 354.495 17.2225 355.401 16.9871C356.064 16.8128 356.708 17.2225 357.452 17.2382C358.601 17.2628 358.889 17.0413 359.758 16.6779C360.337 16.4357 360.848 16.031 361.585 16.1767C361.963 16.2545 362.456 16.7232 362.78 16.8818C363.614 17.2973 364.843 17.4873 365.966 17.5395C366.349 18.3883 365.414 19.693 366.133 20.463C366.38 20.7249 367.075 20.8765 367.378 21.1207C367.912 21.5422 367.458 22.0315 368.585 21.6948C369.089 21.5431 369.596 21.0449 369.902 20.7918C370.464 20.335 370.78 20.3497 371.485 20.0494C372.292 19.7048 372.746 19.0776 373.281 18.6059C373.858 18.0939 374.558 17.7335 375.256 17.2865C376.035 16.7872 376.648 16.3038 377.639 15.9217C378.635 15.5347 379.744 15.26 380.678 14.8209C381.874 14.2606 383.215 14.0597 384.707 14.2143C385.32 14.6338 385.503 14.8701 386.423 14.9124C386.784 14.9282 387.316 14.8967 387.678 14.8642C388.131 14.8209 388.291 14.8238 388.706 14.6929C389.994 14.2892 390.798 13.4108 391.713 12.7915C391.041 13.5142 390.93 15.3762 393.109 15.0424C393.497 14.9853 393.633 14.7283 394.044 14.7283C394.518 14.7283 394.53 15.0198 394.998 15.0532C395.312 15.0877 395.604 15.0621 395.871 14.9676C396.826 14.8543 397.54 14.0912 398.402 13.9672C399.241 13.848 399.462 14.2173 400.324 14.2183C401.095 14.2232 401.762 13.9603 402.389 13.7368C403.232 13.4364 402.963 13.2484 403.718 13.654C404.26 13.9485 404.019 14.2803 405.033 14.1602C405.714 14.0784 406.128 13.3173 406.975 13.4138C407.699 14.5156 409.185 13.5526 410.462 13.6383C411.667 13.722 412.537 14.1346 413.856 13.8805C414.431 13.7683 414.711 13.4601 415.269 13.3714C415.726 13.3035 416.275 13.4453 416.744 13.398C418.187 13.2592 419.522 12.5788 421.124 12.8259C421.739 12.9195 421.774 13.1529 422.527 13.1322C422.907 13.1243 423.674 12.9303 424.011 12.8358C424.905 12.5808 425.809 12.0815 426.871 11.9939C427.904 11.9092 428.557 12.5414 429.348 12.5325C429.864 12.5237 429.736 12.3346 430.239 12.2755C431.449 12.1268 432.768 12.2637 432.787 13.0839C433.372 12.9855 433.876 12.4902 434.621 12.5286C435.619 12.5817 435.416 13.1903 436.53 13.1381C437.503 13.0928 437.879 12.5768 438.953 12.5581C439.716 12.5443 440.191 12.5837 440.898 12.3691C441.588 12.1623 441.804 11.7143 442.431 11.5232C443.2 11.2869 443.399 11.666 443.89 11.6857C445.314 11.7448 445.429 10.9827 446.548 10.5711C447.805 10.1073 447.115 10.7394 448.128 10.8852C448.621 10.9551 448.915 10.6124 449.215 10.4372C450.121 9.89559 450.958 9.14824 451.981 8.70219C453.748 7.93218 456.54 9.36979 456.921 10.3663C457.092 10.8192 456.962 11.2672 457.183 11.7271C457.533 12.4577 457.866 13.1361 457.965 13.8963L462.777 13.9219C463.899 13.5201 465.23 12.9727 465.849 12.7708C466.764 12.4725 469.234 11.4228 470.338 11.4011C473.118 11.347 474.382 12.7344 477.365 12.5798C482.88 12.2923 484.925 9.1699 490.664 9.31071C493.822 9.38652 492.405 10.637 496.367 9.42591C497.263 9.15218 497.924 8.82133 498.511 8.46685C500.023 8.67068 501.454 8.85678 502.58 8.91487C506.257 9.10097 509.251 8.64508 511.565 7.79531C511.915 8.34377 512.152 8.76323 514.101 9.14627C515.962 9.51355 518.826 9.01038 520.616 8.78785C522.805 8.51608 522.561 7.56195 525.802 7.73623C532.089 8.07692 536.668 10.5996 543.338 9.27033C545.798 8.77603 547.922 7.7254 550.401 7.28033C554.096 6.6216 553.758 7.79925 556.55 8.57319C559.543 9.40425 560.339 7.70768 562.492 7.21633C565.107 6.61667 569.174 6.97411 572.341 7.06174C574.057 7.25178 575.788 7.36305 577.522 7.40933C577.799 7.48318 578.091 7.5649 578.428 7.6742C579.579 8.03951 579.351 8.59978 580.89 8.78194C583.143 9.04386 583.395 8.1104 585.198 7.85636C586.969 7.60724 589.083 8.04837 590.745 8.10351C591.042 8.57516 591.617 8.74157 592.477 8.60076C593.444 8.37528 594.317 8.06609 595.098 7.67321C596.244 7.35222 597.668 7.25769 599.001 7.09522C600.523 7.64171 602.172 8.03262 603.946 8.36445C608.57 9.23095 613.697 8.65886 618.036 7.43985C618.804 7.38077 619.64 7.2636 620.596 7.06666C623.61 6.44633 625.654 6.10268 628.375 7.32957C630.067 8.09071 630.944 9.292 633.1 9.73313C637.207 10.573 643.063 7.73623 646.974 7.15725C651.054 6.55267 656.85 7.0834 660.457 8.30931C662.784 9.10097 663.404 10.1053 663.573 11.5725C663.605 11.8462 663.599 15.2728 663.797 15.2226C666.717 14.4831 669.2 13.8608 671.874 15.4895C673.765 16.6435 671.357 17.0373 675.065 16.7843C676.937 16.6563 678.33 15.6411 680.307 16.2191C681.81 16.6602 682.152 17.8379 683.469 18.4385C685.614 19.4143 687.656 18.7979 689.844 18.2071C693.068 17.3386 695.725 16.9162 699.28 17.3997C700.894 17.6212 701.89 17.9422 703.246 17.2264C703.747 16.9595 705.508 14.0046 705.247 13.98C706.686 14.1149 706.86 15.3762 708.687 15.0139C709.191 13.848 709.416 11.5311 711.824 11.0408C712.287 10.9462 714.129 11.1766 714.687 11.1904C717.494 11.2633 717.24 10.6951 719.256 9.94778C722.982 8.57221 723.737 13.1686 725.601 13.9288C727.169 14.5678 728.862 14.0459 730.434 13.7161C733.002 13.1804 734.674 13.5103 737.309 13.6511C738.711 13.7299 740.476 13.4345 741.802 13.6284C742.699 13.7614 743.52 14.5245 744.406 14.5245C746.21 14.5117 748.016 14.492 749.818 14.4625C752.649 14.5235 753.545 15.1291 756.187 15.325C758.107 15.4648 759.878 15.134 761.766 15.4471C761.277 18.7713 767.266 15.778 769.332 15.4471C771.701 15.068 773.271 15.3841 775.38 14.7263C778.042 13.8933 781.713 11.0368 785.334 11.9417C787.688 12.5276 785.973 14.4654 789.511 14.5826C792.589 14.684 794.851 12.6526 798.264 12.8013C800.578 12.8998 801.674 13.8559 803.993 13.7387C806.918 13.5979 808.015 11.4563 811.339 11.9585C813.109 12.2273 813.616 13.2513 815.222 13.5359C817.647 11.731 824.477 9.99308 824.485 13.6009C829.792 13.0888 830.5 10.7434 834.812 13.5388C836.442 13.146 838.377 12.2283 840.163 11.9752C845.064 11.2869 843.639 13.1814 846.326 14.362C849.995 15.9729 854.561 13.2129 856.628 11.7517C861.447 8.33885 863.768 12.0077 868.991 12.1899C869.106 13.5575 869.159 14.7539 872.163 14.5442C874.06 14.4103 873.899 13.2375 876.104 13.784C877.513 14.1326 877.244 15.0946 879.318 15.3733C880.319 15.3191 881.322 15.2846 882.325 15.264C884.398 15.5948 883.949 16.3176 885.119 16.9724C886.84 17.9314 885.585 17.2392 888.055 17.7719C888.968 17.6449 889.834 17.7 890.654 17.9432C892.605 18.6601 891.54 19.9342 894.064 20.4669C895.923 20.8578 899.187 20.3724 901.107 20.138C904.615 19.7048 908.015 18.7506 910.769 17.4529C912.057 16.8463 921.191 11.6798 920.314 15.1507C921.881 15.069 923.225 12.9205 923.108 12.9205C924.794 12.9254 925.442 13.5251 926.112 14.3876C930.323 13.8963 927.512 10.1221 932.66 11.0368C933.77 9.22012 932.597 6.46996 936.904 5.88409C939.971 5.46659 944.082 6.82838 946.936 7.30101C949.187 7.6742 951.37 7.8219 953.67 8.02375C956.147 8.23545 958.284 9.84735 960.88 9.13642C962.599 8.66674 963.153 7.49893 965.207 7.28231C967.945 6.99872 971.16 8.26992 973.042 9.2467C976.978 11.2859 979.343 13.3892 985.193 13.3941C989.311 13.398 993.242 12.4488 997.355 12.4587C999.341 12.4636 1001.24 12.7048 1002.92 13.3301C1004.42 13.8874 1006.44 16.1669 1008.08 16.0625C1008.62 14.8317 1009.11 13.3636 1010.71 12.3917C1012.52 11.2948 1012.75 11.9447 1014.52 12.4734C1016.64 13.1066 1017.45 12.2371 1019.52 12.2617C1021.81 12.2883 1021.44 13.7289 1023.2 13.8569C1025.24 14.0056 1025.54 12.3819 1027.39 13.335C1028.05 13.6708 1029.03 15.071 1029.33 15.5672C1029.77 16.3077 1029.35 17.8014 1031.45 17.7611C1032.59 17.7433 1033.23 16.3717 1034.39 16.1994C1037.63 15.7208 1036.92 18.7014 1037.22 19.8446C1037.34 20.3232 1037.82 21.8632 1039.22 21.5717C1040.29 21.3551 1040.05 20.5506 1040.4 20.0888C1041.84 18.1805 1044.4 16.5814 1045.48 14.5816C1045.78 14.0272 1045.66 12.8299 1046.41 12.4025C1047.32 11.8925 1048.85 12.0156 1049.25 12.7432C1050.71 11.9585 1049.7 10.2993 1052.12 9.85227C1052.6 10.4618 1053.38 10.9492 1054.37 11.1333C1054.69 9.6002 1055.37 8.6628 1056.45 7.28132C1057.12 6.43254 1057.08 4.94078 1058.53 4.68871C1059.08 4.72416 1059.63 4.77733 1060.17 4.83936C1061.7 5.34252 1062.75 7.09522 1064.05 7.72639C1069.08 10.1654 1070.13 7.59543 1073.92 6.28287C1075.88 6.29764 1077.85 6.23463 1079.8 6.11056C1081.07 6.53199 1082.21 7.20648 1083.45 7.86916C1085.11 8.75929 1085.83 9.24178 1087.97 9.18073C1089.98 9.12559 1091.64 8.11631 1093.83 8.66674C1095.82 9.17187 1095.79 10.1053 1097.02 11.1146C1097.97 10.835 1100.37 9.78137 1101.36 9.7154C1103.15 9.59429 1103.11 9.87098 1104.05 11.0398C1104.73 11.8954 1104.54 11.861 1105.52 12.3405C1106.33 12.7344 1107.13 13.1341 1107.95 13.5615C1109.36 14.3059 1110.97 14.6111 1112.42 15.0444C1114.44 15.644 1116.13 15.9325 1118.15 16.4456C1120.12 16.9458 1121.97 18.2386 1123.93 18.8688C1125.88 19.496 1127.82 19.3966 1129.78 19.7875C1131.86 20.205 1133.73 21.681 1135.75 22.4343C1137.62 23.1334 1139.18 24.9776 1141.18 24.9451C1141.89 24.9343 1142.71 25.0928 1143.41 24.9707C1144.18 24.8368 1144.48 24.3731 1145.03 24.1919C1145.74 23.9644 1146.4 24.0914 1147.1 23.7901C1147.76 23.5036 1148.18 22.4963 1148.72 22.2354C1150.1 21.5707 1151.64 22.5308 1153.02 22.0916C1153.69 21.8799 1153.75 21.2359 1154.42 21.0232C1155.09 20.8096 1155.99 21.1404 1156.67 21.0951C1158.49 20.974 1159.95 20.0858 1161.88 20.1075C1164.93 20.143 1167.14 19.5275 1169.95 18.1638C1171.62 17.3574 1172.71 16.1452 1174.22 14.9696C1175.33 14.1011 1176.63 13.6481 1177.9 13.0859C1179.08 12.5709 1180.44 12.0451 1181.76 11.603C1182.54 11.3411 1183.27 11.665 1184.01 11.4405C1184.67 11.2377 1184.74 10.576 1185.39 10.3643C1186.26 10.0817 1187.3 10.4677 1188.23 10.1989C1191.02 9.39637 1192.82 7.34631 1195.73 8.19902C1196.7 8.48162 1197.72 9.01531 1198.72 9.04485C1200.06 9.0862 1201.05 8.08086 1202.33 7.86325C1203.54 7.65746 1205.34 7.84848 1206.51 8.04049C1206.03 11.4002 1210.93 8.25416 1212.59 8.02277C1213.38 7.91052 1214.23 7.84159 1215.01 8.07496C1215.53 8.22758 1216.28 9.03795 1216.73 9.07439C1217.71 9.15513 1219.61 8.01588 1220.65 7.53733C1223.17 6.37445 1224 2.46141 1226.72 1.65005C1229.56 0.803237 1233.42 1.69928 1236.35 1.69928C1239.55 1.69928 1242.75 1.70913 1245.95 1.69928C1246.83 1.69633 1248.09 1.38025 1248.93 1.65005C1249.6 1.86076 1249.66 2.51261 1250.33 2.71742C1251.05 2.93798 1251.86 2.45648 1252.58 2.61895C1253.41 2.80407 1253.98 3.50318 1254.8 3.68534C1255.8 3.90984 1256.73 3.50022 1257.75 3.85175C1258.63 4.15305 1259.01 4.55972 1259.96 4.62766C1261.4 4.73006 1262.95 4.72514 1264.35 4.38937C1265 3.90689 1265.69 3.63709 1266.44 3.58195C1267 3.60853 1267.57 3.64398 1268.13 3.68928C1268.79 3.47856 1268.86 2.83065 1269.52 2.61895C1270.79 2.20736 1272.65 2.66818 1273.98 2.66818C1276.95 2.66818 1280.27 2.17881 1282.86 3.60854C1284.15 4.32241 1285.23 5.40456 1286.51 6.3006C1287.62 7.08537 1288.61 8.4698 1289.81 9.00743C1291.04 9.55687 1292.09 9.38849 1293.31 10.3013C1295.15 11.6837 1296.96 13.1036 1299.14 13.013C1301.99 12.8929 1304.75 11.54 1307.62 11.4277C1310.39 11.3214 1312.59 10.4224 1315.25 9.74987C1316.76 9.3688 1318.3 9.85227 1319.77 9.49484C1321.25 9.13741 1322.89 8.28174 1324.35 7.72343C1325.1 7.43788 1326.4 6.84118 1327.12 6.73385C1328.39 6.54282 1327.8 6.90912 1328.74 7.2764C1330.18 7.8347 1331.9 8.9001 1333.17 9.23095C1336.76 10.1674 1340.3 10.45 1344.07 10.4155C1346.57 10.3928 1348.77 11.8285 1351.05 12.9992C1353.18 14.0893 1354.82 13.9081 1357.08 13.7958C1362.56 13.5221 1367.94 15.8863 1373.39 14.2261C1379.99 12.2184 1385.36 14.1818 1392.03 13.3724C1397.67 12.6861 1401.21 9.06356 1406.68 12.434C1410.94 15.0631 1411.11 18.5114 1416.99 16.992C1418.98 16.479 1418.97 16.9123 1420.65 17.38C1422.24 17.8182 1422.93 17.6065 1424.55 17.3485C1427.08 16.9389 1428.58 18.3972 1431 18.3558C1433.88 18.3056 1433.51 16.7951 1434.91 15.7829C1436.13 17.7453 1437.76 18.9082 1440 19.5069V0.697879L-4.55712e-05 0.697879V7.34729C0.857194 7.53832 1.69191 7.81008 2.89564 7.94006Z" fill="#F9F3F3"/>
</g>
<defs>
<clipPath id="clip0">
<rect x="1440" y="25.1572" width="1440" height="24.4594" transform="rotate(-180 1440 25.1572)" fill="white"/>
</clipPath>
</defs>
</svg>
